<svg id="wave" style="transform:rotate(180deg); transition: 0.3s" viewBox="0 0 1440 180" version="1.1" xmlns="http://www.w3.org/2000/svg">
<defs><linearGradient id="sw-gradient-0" x1="0" x2="0" y1="1" y2="0"><stop stop-color="rgba(0, 63, 134, 1)" offset="0%"></stop><stop stop-color="rgba(250, 250, 250, 1)" offset="100%"></stop></linearGradient></defs><path style="transform:translate(0, 0px); opacity:1" fill="url(#sw-gradient-0)" d="M0,144L34.3,141C68.6,138,137,132,206,108C274.3,84,343,42,411,42C480,42,549,84,617,111C685.7,138,754,150,823,150C891.4,150,960,138,1029,132C1097.1,126,1166,126,1234,132C1302.9,138,1371,150,1440,150C1508.6,150,1577,138,1646,138C1714.3,138,1783,150,1851,138C1920,126,1989,90,2057,63C2125.7,36,2194,18,2263,15C2331.4,12,2400,24,2469,33C2537.1,42,2606,48,2674,48C2742.9,48,2811,42,2880,45C2948.6,48,3017,60,3086,81C3154.3,102,3223,132,3291,141C3360,150,3429,138,3497,123C3565.7,108,3634,90,3703,87C3771.4,84,3840,96,3909,105C3977.1,114,4046,120,4114,129C4182.9,138,4251,150,4320,156C4388.6,162,4457,162,4526,147C4594.3,132,4663,102,4731,84C4800,66,4869,60,4903,57L4937.1,54L4937.1,180L4902.9,180C4868.6,180,4800,180,4731,180C4662.9,180,4594,180,4526,180C4457.1,180,4389,180,4320,180C4251.4,180,4183,180,4114,180C4045.7,180,3977,180,3909,180C3840,180,3771,180,3703,180C3634.3,180,3566,180,3497,180C3428.6,180,3360,180,3291,180C3222.9,180,3154,180,3086,180C3017.1,180,2949,180,2880,180C2811.4,180,2743,180,2674,180C2605.7,180,2537,180,2469,180C2400,180,2331,180,2263,180C2194.3,180,2126,180,2057,180C1988.6,180,1920,180,1851,180C1782.9,180,1714,180,1646,180C1577.1,180,1509,180,1440,180C1371.4,180,1303,180,1234,180C1165.7,180,1097,180,1029,180C960,180,891,180,823,180C754.3,180,686,180,617,180C548.6,180,480,180,411,180C342.9,180,274,180,206,180C137.1,180,69,180,34,180L0,180Z"></path></svg>
